<svg id="Grupo_263" data-name="Grupo 263" xmlns="http://www.w3.org/2000/svg" width="24" height="17.177" viewBox="0 0 24 17.177">
  <path id="Caminho_172" data-name="Caminho 172" d="M13,23.137a1.1,1.1,0,0,1-.67-.223L2.33,15.2a.774.774,0,0,1-.067-1.211.8.8,0,0,1,.067-.057l10-7.714a1.122,1.122,0,0,1,1.414-.012.775.775,0,0,1,.014,1.213,1.063,1.063,0,0,1-.088.068l-9.18,7.08,9.18,7.08a.774.774,0,0,1,.07,1.209A1.084,1.084,0,0,1,13,23.137Z" transform="translate(-2 -5.96)" fill="#ec1846"/>
  <path id="Caminho_173" data-name="Caminho 173" d="M25.143,17H2.857a1.012,1.012,0,0,1,0-2H25.143a1.012,1.012,0,0,1,0,2Z" transform="translate(-2 -7.395)" fill="#ec1846"/>
</svg>
