<svg xmlns="http://www.w3.org/2000/svg" width="23.998" height="17.177" viewBox="0 0 23.998 17.177">
  <g id="Grupo_632" data-name="Grupo 632" transform="translate(-66.002 -222.8)">
    <g id="Grupo_263" data-name="Grupo 263" transform="translate(64 216.84)">
      <path id="Caminho_172" data-name="Caminho 172" d="M13,23.137a1.1,1.1,0,0,1-.67-.223L2.33,15.2a.774.774,0,0,1-.067-1.211.8.8,0,0,1,.067-.057l10-7.714a1.122,1.122,0,0,1,1.414-.012.775.775,0,0,1,.014,1.213,1.063,1.063,0,0,1-.088.068l-9.18,7.08,9.18,7.08a.774.774,0,0,1,.07,1.209A1.084,1.084,0,0,1,13,23.137Z" fill="#888"/>
      <path id="Caminho_173" data-name="Caminho 173" d="M23.533,17H2.8A.916.916,0,0,1,2,16a.916.916,0,0,1,.8-1H23.533a.916.916,0,0,1,.8,1A.916.916,0,0,1,23.533,17Z" transform="translate(1.67 -1.435)" fill="#888"/>
    </g>
  </g>
</svg>
