<svg xmlns="http://www.w3.org/2000/svg" width="17.112" height="17.104" viewBox="0 0 17.112 17.104">
  <path id="Caminho_283" data-name="Caminho 283" d="M8.545,0a.611.611,0,0,0-.6.611V.62h0V11.356L4.1,7.514a.611.611,0,1,0-.863.864l4.885,4.885.007.006h0l.019.018h0l.025.022h0l.016.012h0l.029.02,0,0,.022.013,0,0,.025.014,0,0,.022.01,0,0,.025.011,0,0,.027.01h0l.021.007h0l.027.007h0l.025.005h0l.026,0h0l.029,0h.063l.055,0h0l.042-.007h0l.033-.007h0l.027-.007h0l.041-.012h0l.026-.01,0,0,.036-.016,0,0,.05-.025,0,0,0,0,0,0,.037-.023,0,0,.026-.018h0l.04-.032h0l0,0h0l.028-.025L13.87,8.379a.611.611,0,0,0-.426-1.049h-.018a.61.61,0,0,0-.42.184h0L9.165,11.358V.613A.61.61,0,0,0,8.554,0H8.545ZM.617,15.882H.609a.611.611,0,1,0,0,1.221H16.5a.611.611,0,0,0,0-1.221H.617Z" transform="translate(0.002)" fill="#fff"/>
</svg>
