<svg xmlns="http://www.w3.org/2000/svg" width="34.222" height="17.769" viewBox="0 0 34.222 17.769">
  <path id="Caminho_198" data-name="Caminho 198" d="M27.711,49.269a20.761,20.761,0,0,1-11.8-3.949A25.9,25.9,0,0,1,11.4,41.372l-.8-.987.8-.987a22.4,22.4,0,0,1,4.513-3.949,20.989,20.989,0,0,1,11.8-3.949,20.874,20.874,0,0,1,11.8,3.949A28.714,28.714,0,0,1,44.023,39.4l.8.987-.8.987a25.9,25.9,0,0,1-4.513,3.949A20.989,20.989,0,0,1,27.711,49.269ZM11.775,40.385l.329.376a23.171,23.171,0,0,0,4.325,3.808,19.835,19.835,0,0,0,11.282,3.808,19.835,19.835,0,0,0,11.282-3.808,21.389,21.389,0,0,0,4.325-3.808l.329-.376-.329-.376A23.171,23.171,0,0,0,38.993,36.2a19.835,19.835,0,0,0-11.282-3.808A19.835,19.835,0,0,0,16.429,36.2,23.171,23.171,0,0,0,12.1,40.009Zm15.936,5.641a5.947,5.947,0,1,1,5.97-5.97A5.979,5.979,0,0,1,27.711,46.026Zm0-10.953a5.006,5.006,0,1,0,5.03,4.983A5.026,5.026,0,0,0,27.711,35.073Z" transform="translate(-10.6 -31.5)"/>
</svg>
