<svg xmlns="http://www.w3.org/2000/svg" width="29.307" height="31.073" viewBox="0 0 29.307 31.073">
  <g id="Grupo_467" data-name="Grupo 467" transform="translate(132)">
    <g id="Grupo_466" data-name="Grupo 466" transform="translate(-132)">
      <path id="Caminho_164" data-name="Caminho 164" d="M42.718,32.409a7.709,7.709,0,1,0-15.418,0,6.8,6.8,0,0,0,.238,1.834,7.2,7.2,0,0,0,1.087,2.445c.1.2.238.408.374.645.17.272.306.543.475.781A5.183,5.183,0,0,1,30.56,41.2V44.4a1.609,1.609,0,0,0,1.358,1.6c.34,1.732,1.358,2.819,3.09,2.819a3.022,3.022,0,0,0,3.09-2.819,1.635,1.635,0,0,0,1.358-1.6V41.2a5.106,5.106,0,0,1,1.087-3.09c.136-.238.306-.509.475-.781.136-.238.272-.441.374-.645a7.2,7.2,0,0,0,1.087-2.445A6.8,6.8,0,0,0,42.718,32.409ZM38.133,42.02H31.953v-.781a1.794,1.794,0,0,0-.034-.441h6.215c0,.136-.034.272-.034.441v.781ZM37.828,44.7H32.19a.268.268,0,0,1-.272-.272V43.378H38.1v1.053C38.133,44.567,38,44.7,37.828,44.7Zm-2.819,2.785c-.374,0-1.324,0-1.7-1.426h3.43A1.626,1.626,0,0,1,35.009,47.487Zm6.147-13.516a6.317,6.317,0,0,1-.917,2.038c-.136.2-.238.408-.374.645-.17.272-.306.543-.441.747a10.13,10.13,0,0,0-1.019,2H31.681a8.582,8.582,0,0,0-1.019-2c-.136-.238-.306-.475-.441-.747-.136-.238-.272-.475-.374-.645a6.471,6.471,0,0,1-.917-2.072,5.909,5.909,0,0,1-.2-1.528,6.351,6.351,0,1,1,12.7,0A13.723,13.723,0,0,1,41.156,33.971Z" transform="translate(-20.372 -17.738)" fill="#0a55c4"/>
      <path id="Caminho_165" data-name="Caminho 165" d="M84.4,45.4H81.579a.679.679,0,1,0,0,1.358H84.4a.679.679,0,0,0,0-1.358Z" transform="translate(-55.77 -31.408)" fill="#0a55c4"/>
      <path id="Caminho_166" data-name="Caminho 166" d="M71.879,19.662a.67.67,0,0,0,.475-.2l2-2a.672.672,0,1,0-.951-.951l-2,2a.657.657,0,0,0,0,.951A.671.671,0,0,0,71.879,19.662Z" transform="translate(-49.364 -12.191)" fill="#0a55c4"/>
      <path id="Caminho_167" data-name="Caminho 167" d="M48.679,8.377a.681.681,0,0,0,.679-.679V4.879a.679.679,0,0,0-1.358,0V7.7A.681.681,0,0,0,48.679,8.377Z" transform="translate(-34.042 -4.2)" fill="#0a55c4"/>
      <path id="Caminho_168" data-name="Caminho 168" d="M21.107,19.458a.657.657,0,0,0,.951,0,.657.657,0,0,0,0-.951l-2-2a.672.672,0,1,0-.951.951Z" transform="translate(-14.825 -12.191)" fill="#0a55c4"/>
      <path id="Caminho_169" data-name="Caminho 169" d="M10.4,45.4H7.579a.679.679,0,1,0,0,1.358H10.4a.679.679,0,1,0,0-1.358Z" transform="translate(-6.9 -31.408)" fill="#0a55c4"/>
      <path id="Caminho_170" data-name="Caminho 170" d="M21.107,68.8l-2,2a.657.657,0,0,0,0,.951.657.657,0,0,0,.951,0l2-2a.672.672,0,1,0-.951-.951Z" transform="translate(-14.825 -46.73)" fill="#0a55c4"/>
      <path id="Caminho_171" data-name="Caminho 171" d="M72.355,68.8a.672.672,0,0,0-.951.951l2,2a.657.657,0,0,0,.951,0,.657.657,0,0,0,0-.951Z" transform="translate(-49.364 -46.73)" fill="#0a55c4"/>
    </g>
  </g>
</svg>
