<svg xmlns="http://www.w3.org/2000/svg" width="40" height="40" viewBox="0 0 40 40">
  <g id="Grupo_756" data-name="Grupo 756" transform="translate(-328.2 -123)">
    <path id="Retângulo_336" data-name="Retângulo 336" d="M5,0H40a0,0,0,0,1,0,0V40a0,0,0,0,1,0,0H5a5,5,0,0,1-5-5V5A5,5,0,0,1,5,0Z" transform="translate(328.2 123)" fill="#002e93"/>
    <g id="Grupo_755" data-name="Grupo 755" transform="translate(335.538 129.281)">
      <g id="Grupo_466" data-name="Grupo 466">
        <path id="Caminho_164" data-name="Caminho 164" d="M40.435,31.268a6.568,6.568,0,1,0-13.135,0,5.793,5.793,0,0,0,.2,1.562,6.132,6.132,0,0,0,.926,2.083c.087.174.2.347.318.55.145.231.26.463.405.665a4.415,4.415,0,0,1,.926,2.633v2.72a1.371,1.371,0,0,0,1.157,1.36,2.644,2.644,0,0,0,5.266,0,1.393,1.393,0,0,0,1.157-1.36v-2.72a4.35,4.35,0,0,1,.926-2.633c.116-.2.26-.434.405-.665.116-.2.231-.376.318-.55a6.133,6.133,0,0,0,.926-2.083A5.793,5.793,0,0,0,40.435,31.268Zm-3.906,8.188H31.264V38.79a1.529,1.529,0,0,0-.029-.376h5.295c0,.116-.029.231-.029.376v.665Zm-.26,2.286h-4.8a.228.228,0,0,1-.231-.231v-.9H36.5v.9C36.529,41.626,36.414,41.741,36.269,41.741Zm-2.4,2.372c-.318,0-1.128,0-1.447-1.215h2.922A1.386,1.386,0,0,1,33.868,44.114ZM39.1,32.6a5.382,5.382,0,0,1-.781,1.736c-.116.174-.2.347-.318.55-.145.231-.26.463-.376.637a8.63,8.63,0,0,0-.868,1.707H31.032a7.311,7.311,0,0,0-.868-1.707c-.116-.2-.26-.405-.376-.637-.116-.2-.231-.405-.318-.55a5.513,5.513,0,0,1-.781-1.765,5.034,5.034,0,0,1-.174-1.3,5.41,5.41,0,1,1,10.821,0A11.691,11.691,0,0,1,39.1,32.6Z" transform="translate(-21.398 -18.769)" fill="#fff"/>
        <path id="Caminho_165" data-name="Caminho 165" d="M83.88,45.4h-2.4a.579.579,0,1,0,0,1.157h2.4a.579.579,0,0,0,0-1.157Z" transform="translate(-59.49 -33.48)" fill="#fff"/>
        <path id="Caminho_166" data-name="Caminho 166" d="M71.779,19.164a.571.571,0,0,0,.405-.174l1.707-1.707a.573.573,0,1,0-.81-.81l-1.707,1.707a.559.559,0,0,0,0,.81A.571.571,0,0,0,71.779,19.164Z" transform="translate(-52.596 -12.799)" fill="#fff"/>
        <path id="Caminho_167" data-name="Caminho 167" d="M48.579,7.759a.58.58,0,0,0,.579-.579v-2.4a.579.579,0,0,0-1.157,0v2.4A.58.58,0,0,0,48.579,7.759Z" transform="translate(-36.109 -4.2)" fill="#fff"/>
        <path id="Caminho_168" data-name="Caminho 168" d="M20.781,18.991a.559.559,0,0,0,.81,0,.559.559,0,0,0,0-.81l-1.707-1.707a.573.573,0,1,0-.81.81Z" transform="translate(-15.428 -12.799)" fill="#fff"/>
        <path id="Caminho_169" data-name="Caminho 169" d="M9.88,45.4h-2.4a.579.579,0,1,0,0,1.157h2.4a.579.579,0,1,0,0-1.157Z" transform="translate(-6.9 -33.48)" fill="#fff"/>
        <path id="Caminho_170" data-name="Caminho 170" d="M20.781,68.774l-1.707,1.707a.559.559,0,0,0,0,.81.559.559,0,0,0,.81,0l1.707-1.707a.573.573,0,1,0-.81-.81Z" transform="translate(-15.428 -49.967)" fill="#fff"/>
        <path id="Caminho_171" data-name="Caminho 171" d="M72.184,68.774a.573.573,0,0,0-.81.81l1.707,1.707a.559.559,0,0,0,.81,0,.559.559,0,0,0,0-.81Z" transform="translate(-52.596 -49.967)" fill="#fff"/>
      </g>
    </g>
  </g>
</svg>
