<svg id="Grupo_1240" data-name="Grupo 1240" xmlns="http://www.w3.org/2000/svg" width="33.995" height="34" viewBox="0 0 33.995 34">
  <path id="Caminho_362" data-name="Caminho 362" d="M17,0a17,17,0,0,0,0,34q.768,0,1.53-.069c.472-.042.94-.107,1.4-.188l.178-.032A17,17,0,0,0,17,0ZM15.634,32.807h-.04c-.441-.039-.878-.1-1.312-.173l-.074-.012q-.636-.114-1.259-.28l-.1-.026c-.405-.11-.806-.237-1.2-.379l-.123-.043c-.387-.142-.767-.3-1.142-.474-.047-.021-.093-.041-.139-.063-.367-.17-.727-.361-1.08-.563l-.15-.084q-.521-.3-1.02-.65l-.151-.1c-.327-.232-.646-.479-.957-.737L6.8,29.144V24.367a6.241,6.241,0,0,1,6.233-6.233h7.933A6.241,6.241,0,0,1,27.2,24.367v4.778l-.075.063q-.475.4-.976.751l-.133.091q-.506.351-1.036.661l-.134.076c-.358.2-.723.4-1.094.57-.043.02-.085.038-.129.057-.377.174-.761.334-1.151.478l-.113.04c-.4.142-.8.271-1.206.381l-.1.024c-.416.11-.836.2-1.26.281l-.073.011c-.434.076-.872.135-1.313.174h-.04c-.453.039-.907.06-1.366.06S16.087,32.846,15.634,32.807Zm12.7-4.712V24.367A7.375,7.375,0,0,0,20.967,17H13.033a7.375,7.375,0,0,0-7.367,7.367v3.727a15.867,15.867,0,1,1,22.667,0Z" fill="#ff7e8f"/>
  <path id="Caminho_363" data-name="Caminho 363" d="M165.667,64a5.667,5.667,0,1,0,5.667,5.667A5.667,5.667,0,0,0,165.667,64Zm0,10.2a4.533,4.533,0,1,1,4.533-4.533A4.533,4.533,0,0,1,165.667,74.2Z" transform="translate(-148.667 -59.467)" fill="#ff7e8f"/>
</svg>
